<svg width="24" height="24" viewBox="0 0 24 24" fill="none" xmlns="http://www.w3.org/2000/svg">
<path d="M15.375 4.36813L12.375 2.63631C12.261 2.57048 12.1317 2.53583 12 2.53583C11.8683 2.53583 11.739 2.57048 11.625 2.63631L8.625 4.36813C8.51101 4.43394 8.41635 4.5286 8.35052 4.64258C8.2847 4.75656 8.25003 4.88586 8.25 5.01748V8.07245L5.32913 13.9142C5.30706 13.9685 5.29167 14.0253 5.2833 14.0833L2.625 15.6181C2.51101 15.6839 2.41635 15.7786 2.35052 15.8926C2.2847 16.0066 2.25003 16.1358 2.25 16.2675V19.7325C2.24998 19.8641 2.28462 19.9935 2.35045 20.1075C2.41628 20.2216 2.51097 20.3163 2.625 20.3821L5.625 22.1139C5.73904 22.1797 5.86836 22.2143 6 22.2143C6.13164 22.2143 6.26096 22.1797 6.375 22.1139L9.375 20.3821C9.48903 20.3163 9.58372 20.2216 9.64955 20.1075C9.71538 19.9935 9.75002 19.8641 9.75 19.7325V18.75H14.25V19.7325C14.25 19.8641 14.2846 19.9935 14.3504 20.1075C14.4163 20.2216 14.511 20.3163 14.625 20.3821L17.625 22.1139C17.739 22.1797 17.8684 22.2143 18 22.2143C18.1316 22.2143 18.261 22.1797 18.375 22.1139L21.375 20.3821C21.489 20.3163 21.5837 20.2216 21.6496 20.1075C21.7154 19.9935 21.75 19.8641 21.75 19.7325V16.2675C21.75 16.1358 21.7154 16.0064 21.6496 15.8924C21.5837 15.7784 21.489 15.6837 21.375 15.6178L18.7167 14.0833C18.7083 14.0253 18.6929 13.9685 18.6709 13.9142L15.75 8.07275V5.01748C15.75 4.88586 15.7153 4.75656 15.6495 4.64258C15.5837 4.5286 15.489 4.43394 15.375 4.36813ZM9.75 5.45106L12 4.15206L14.25 5.45106V8.0489L12 9.3479L9.75 8.0489V5.45106ZM8.25 19.2989L6 20.5979L3.75 19.2989V16.701L6 15.402L8.25 16.701V19.2989ZM9.75 17.25V16.2675C9.75002 16.1358 9.71538 16.0064 9.64955 15.8924C9.58372 15.7784 9.48903 15.6837 9.375 15.6178L6.87585 14.1754L9.225 9.47795L11.625 10.8637C11.739 10.9294 11.8684 10.964 12 10.964C12.1316 10.964 12.261 10.9294 12.375 10.8637L14.7754 9.47795L17.1241 14.1754L14.625 15.6181C14.511 15.684 14.4163 15.7787 14.3504 15.8927C14.2846 16.0067 14.25 16.1361 14.25 16.2678V17.25H9.75ZM20.25 19.2989L18 20.5979L15.75 19.2989V16.701L18 15.402L20.25 16.701V19.2989Z" fill="white"/>
</svg>
